<svg xmlns="http://www.w3.org/2000/svg" viewBox="0 0 24 24"><path fill="#303C42" d="M15 3c-4.962 0-9 4.038-9 9s4.038 9 9 9 9-4.038 9-9-4.038-9-9-9z"/><circle cx="15" cy="12" r="8" fill="#E53935"/><path d="M7.75 12.75c0-4.411 3.589-8 8-8 2.015 0 3.853.755 5.261 1.989A7.976 7.976 0 0 0 15 4c-4.411 0-8 3.589-8 8a7.976 7.976 0 0 0 2.739 6.011A7.958 7.958 0 0 1 7.75 12.75z" opacity=".1"/><path fill="#303C42" d="M1 12a8 8 0 0 1 1.907-5.176.5.5 0 1 0-.762-.648C.762 7.802 0 9.871 0 12s.762 4.198 2.145 5.824a.498.498 0 0 0 .705.057.5.5 0 0 0 .057-.705A8 8 0 0 1 1 12z"/><path fill="#303C42" d="M4 12a8 8 0 011.907-5.176.5.5 0 10-.762-.648C3.762 7.802 3 9.871 3 12s.762 4.198 2.145 5.824a.498.498 0 00.705.057.5.5 0 00.057-.705A8 8 0 014 12zM15.95 12.244c.021-.08.05-.158.05-.244a.987.987 0 00-.5-.846V6.5a.5.5 0 10-1 0v4.654A.987.987 0 0014 12c0 .551.449 1 1 1 .086 0 .164-.029.244-.05l2.402 2.404a.498.498 0 00.708 0 .5.5 0 000-.708l-2.403-2.402z"/><linearGradient id="a" x1="15.277" x2="15.277" y1="6.095" y2="6.095" gradientUnits="userSpaceOnUse"><stop offset="0" stop-opacity=".1"/><stop offset="1" stop-opacity="0"/></linearGradient><path fill="url(#a)" d="M15.277 6.095z"/><linearGradient id="b" x1="13.511" x2="21.847" y1="8.116" y2="16.452" gradientUnits="userSpaceOnUse"><stop offset="0" stop-opacity=".1"/><stop offset="1" stop-opacity="0"/></linearGradient><path fill="url(#b)" d="M15.405 6.223c.055.08.095.172.095.277v4.654c.293.174.5.48.5.846 0 .086-.029.164-.05.244l2.404 2.402a.5.5 0 1 1-.708.708l-2.402-2.403c-.08.02-.158.049-.244.049a.976.976 0 0 1-.58-.208l-.002.019 5.492 5.491a8.005 8.005 0 0 0 2.918-4.656l-7.423-7.423z"/><linearGradient id="c" x1="1.547" x2="22.785" y1="6.696" y2="16.6" gradientUnits="userSpaceOnUse"><stop offset="0" stop-color="#FFF" stop-opacity=".2"/><stop offset="1" stop-color="#FFF" stop-opacity="0"/></linearGradient><path fill="url(#c)" d="M15 3c-4.962 0-9 4.038-9 9s4.038 9 9 9 9-4.038 9-9-4.038-9-9-9zM1 12a8 8 0 0 1 1.907-5.176.5.5 0 1 0-.762-.648C.762 7.802 0 9.871 0 12s.762 4.198 2.145 5.824a.498.498 0 0 0 .705.057.5.5 0 0 0 .057-.705A8 8 0 0 1 1 12zm3 0a8 8 0 0 1 1.907-5.176.5.5 0 1 0-.762-.648C3.762 7.802 3 9.871 3 12s.762 4.198 2.145 5.824a.498.498 0 0 0 .705.057.5.5 0 0 0 .057-.705A8 8 0 0 1 4 12z"/></svg>