<svg xmlns="http://www.w3.org/2000/svg" data-name="Layer 1" viewBox="0 0 700 550"><path fill="#ffe3cb" d="M214.26836,396.51124c-44.217-46.79444-49.07329-216.20993,45.18127-203.074,49.61366,6.91455,142.64146-12.23617,205.30525-33.61574C525.68681,139.033,488.74359,297.535,419.57365,362.8951S258.48541,443.30568,214.26836,396.51124Z"/><path fill="#ffe3cb" d="M202.55722,409.55819c23.58816,24.96338,60.10738,34.85882,102.83067,27.86289,42.64512-6.98182,86.38422-29.96555,123.16052-64.71743,27.64977-26.1267,53.66-69.51161,69.57557-116.05127,15.20372-44.45925,18.24664-82.68688,7.94052-99.76614-5.76018-9.54558-15.61826-12.26652-28.50892-7.86838l.35572,1.04077c12.517-4.2701,21.67275-1.78206,27.21081,7.396,10.14285,16.80815,7.06234,54.68244-8.04009,98.84176-15.8599,46.37949-41.762,89.59545-69.28949,115.60833-36.61853,34.60116-80.15247,57.48347-122.58212,64.43074-42.35185,6.9353-78.5241-2.84374-101.85423-27.53311Z"/><path fill="#fceede" d="M454.01784,319.139a305.68538,305.68538,0,0,0,15.74231-29.40966V199.97441H221.46529c-32.14374,18.90821-41.684,71.53516-36.19782,119.16455h95.04932c-1.61133-14.79345,10.27881-26.42285,21.74853-25.833,10.8208.55664,21.063,11.978,19.40821,25.833Z"/><path fill="#ffe3cb" d="M202.55722,409.55819c23.58816,24.96338,60.10738,34.85882,102.83067,27.86289,42.64512-6.98182,86.38422-29.96555,123.16052-64.71743,27.64977-26.1267,53.66-69.51161,69.57557-116.05127,15.20372-44.45925,18.24664-82.68688,7.94052-99.76614-5.76018-9.54558-15.61826-12.26652-28.50892-7.86838l.35572,1.04077c12.517-4.2701,21.67275-1.78206,27.21081,7.396,10.14285,16.80815,7.06234,54.68244-8.04009,98.84176-15.8599,46.37949-41.762,89.59545-69.28949,115.60833-36.61853,34.60116-80.15247,57.48347-122.58212,64.43074-42.35185,6.9353-78.5241-2.84374-101.85423-27.53311Z"/><path fill="#50661a" d="M541.82305,414.57511a116.95314,116.95314,0,0,1-1.61371-16.68115,123.00481,123.00481,0,0,1,.66083-16.76734,89.48,89.48,0,0,1,3.42834-16.4292,72.55786,72.55786,0,0,1,3.06018-7.82055,59.72778,59.72778,0,0,1,4.18762-7.262,62.89841,62.89841,0,0,0-6.77447,15.22949c-.76941,2.67457-1.46326,5.37061-2.00281,8.10206q-.78918,4.10008-1.25952,8.25341a131.45451,131.45451,0,0,0-.807,16.68409q.03873,4.18138.32294,8.35815C541.2022,409.02579,541.43859,411.80875,541.82305,414.57511Z"/><path fill="#5e7c24" d="M541.82305,372.73852s-29.38216,3.70052-42.16928-8.90756c-9.4892-9.35633-.46339-25.45988,12.5413-22.55063C520.90141,343.228,531.64,350.9668,541.82305,372.73852Z"/><path fill="#50661a" d="M541.82305,372.73844c-4.12451-1.25537-8.18415-2.72534-12.18036-4.35279q-5.99159-2.44812-11.74848-5.44213-2.863-1.51758-5.61828-3.23316a56.51659,56.51659,0,0,1-5.3357-3.689,39.83356,39.83356,0,0,1-4.80041-4.36646,19.316,19.316,0,0,1-3.52771-5.4104,19.16689,19.16689,0,0,0,3.75781,5.19507,39.98944,39.98944,0,0,0,4.87061,4.1875,82.13407,82.13407,0,0,0,10.95465,6.74756c3.78485,2.03686,7.69763,3.83154,11.63891,5.55639q2.95781,1.29163,5.96033,2.48194C537.78826,371.226,539.79485,372.01041,541.82305,372.73844Z"/><path fill="#50661a" d="M509.96221 357.88126l.02874-4.33472c-.008-1.44067.00043-2.87915-.08154-4.313a37.677 37.677 0 00-.38086-4.27417l-.19934-1.05c-.07086-.34937-.19372-.68116-.28558-1.02637a7.57457 7.57457 0 00-.38751-.99243 8.68049 8.68049 0 00-.577-.9065 7.29871 7.29871 0 011.93591 3.88062 29.11265 29.11265 0 01.53736 4.34155c.029 1.45508.03 2.90845-.06836 4.35693A36.43426 36.43426 0 01509.96221 357.88126zM496.13433 357.88126c1.72705-.30054 3.43066-.54834 5.0957-.93188a15.32757 15.32757 0 002.4165-.76075 3.49364 3.49364 0 001.88806-1.59106 3.03092 3.03092 0 01-1.65844 2.03833 9.85317 9.85317 0 01-2.49915.94043A15.887 15.887 0 01496.13433 357.88126zM501.44622 365.40958a48.90824 48.90824 0 006.82074-1.37109 12.80309 12.80309 0 003.12921-1.34229 4.47244 4.47244 0 002.08178-2.5935 4.05211 4.05211 0 01-1.79473 3.00634 10.42913 10.42913 0 01-3.22986 1.5459A20.24708 20.24708 0 01501.44622 365.40958zM517.87542 362.57413c.48968-1.43555.94262-2.87451 1.34924-4.32349.398-1.45068.7904-2.90185 1.05-4.37915a25.96473 25.96473 0 00.40216-8.94336 15.06506 15.06506 0 01.68658 4.50953 26.97032 26.97032 0 01-.457 4.55688 35.64489 35.64489 0 01-1.21124 4.40454A28.09348 28.09348 0 01517.87542 362.57413zM513.478 371.07633c.93677-.24585 1.843-.553 2.73078-.88135a15.26125 15.26125 0 002.54169-1.20752 9.35148 9.35148 0 002.1477-1.74219 7.58069 7.58069 0 001.34186-2.46386 5.45328 5.45328 0 01-.94495 2.77246 7.61926 7.61926 0 01-2.21344 1.98584 10.61563 10.61563 0 01-2.71844 1.13159A10.94054 10.94054 0 01513.478 371.07633zM528.36614 351.54264a14.2968 14.2968 0 011.38141 3.84277 16.49464 16.49464 0 01.32275 4.1023 13.37966 13.37966 0 01-.86145 4.03027 12.09378 12.09378 0 01-2.08325 3.51514 18.34826 18.34826 0 001.61487-3.677 14.66053 14.66053 0 00.68737-3.90527 18.86037 18.86037 0 00-.166-3.97925A24.15024 24.15024 0 00528.36614 351.54264zM526.4663 372.73844c1.06793-.53516 2.11749-.99439 3.12439-1.53369a12.45093 12.45093 0 002.81915-1.94751 5.29129 5.29129 0 01-2.51691 2.51611A8.2116 8.2116 0 01526.4663 372.73844zM535.76726 361.45719a14.383 14.383 0 011.00934 4.56689 10.26122 10.26122 0 01-.11328 2.364 4.54415 4.54415 0 01-.89606 2.18286 7.20148 7.20148 0 00.39649-2.2395 20.02 20.02 0 00-.03-2.271C536.05492 364.53849 535.87145 363.01871 535.76726 361.45719z"/><path fill="#c4ce6e" d="M540.75515,372.5905s-22.89271-18.78641-22.53305-36.74038c.26691-13.32346,18.165-17.84521,24.99628-6.40319C547.79174,337.1071,549.55834,350.22518,540.75515,372.5905Z"/><path fill="#8b9d36" d="M540.75518,372.59049a125.58626,125.58626,0,0,1-5.34388-11.78833q-2.38594-6.02307-4.17205-12.27222-.862-3.12853-1.50385-6.31689a53.83782,53.83782,0,0,1-.96881-6.429,39.91085,39.91085,0,0,1-.08252-6.50781,18.60035,18.60035,0,0,1,1.58923-6.27661,19.94635,19.94635,0,0,0-1.09985,6.30591,39.96174,39.96174,0,0,0,.358,6.396,83.81654,83.81654,0,0,0,2.67,12.56031c1.10816,4.14648,2.497,8.21606,3.92652,12.2705q1.07244,3.04212,2.24988,6.04859C539.13073,368.59854,539.944,370.592,540.75518,372.59049Z"/><path fill="#8b9d36" d="M529.63066 339.24234c2.03107-2.08911 4.121-4.05615 6.11408-6.10913.99408-1.02612 1.95306-2.07812 2.85309-3.1748a18.31366 18.31366 0 001.21112-1.73487 7.48549 7.48549 0 00.4873-.9392 10.0163 10.0163 0 00.30658-1.0293 7.02276 7.02276 0 01-1.37 4.157 24.38676 24.38676 0 01-2.77045 3.41675A33.57224 33.57224 0 01529.63066 339.24234zM520.1212 329.20353c1.50446.946 2.86512 1.97924 4.27869 2.91015a18.71133 18.71133 0 002.16241 1.24854 3.71669 3.71669 0 002.40729.40747 2.93946 2.93946 0 01-2.66626.32861 9.1009 9.1009 0 01-2.45312-1.15015A13.04627 13.04627 0 01520.1212 329.20353zM518.30864 338.237c1.94489 1.34253 3.79431 2.72632 5.77417 3.85474a13.84711 13.84711 0 003.06659 1.36694 4.654 4.654 0 003.28638-.13623 3.95316 3.95316 0 01-3.445.90039 10.00764 10.00764 0 01-3.4035-1.26318 17.5327 17.5327 0 01-2.88587-2.10352A15.75809 15.75809 0 01518.30864 338.237zM531.66552 348.21476c1.35894-.68872 2.68371-1.40967 4.00469-2.12159 1.31092-.73071 2.615-1.46313 3.86792-2.27172a42.44463 42.44463 0 003.63715-2.5835 27.08421 27.08421 0 003.22766-3.12476 13.76687 13.76687 0 01-2.70666 3.70581 23.20624 23.20624 0 01-3.62207 2.84595A27.37481 27.37481 0 01531.66552 348.21476zM522.46886 350.86905c.87366.446 1.72675.86695 2.58411 1.25489a17.5895 17.5895 0 002.60608.96533 10.16372 10.16372 0 002.68048.394 8.65676 8.65676 0 002.725-.582 5.0529 5.0529 0 01-2.649 1.35864 7.32878 7.32878 0 01-3.02527-.20825 9.88653 9.88653 0 01-2.70941-1.24512A9.252 9.252 0 01522.46886 350.86905zM546.8889 348.2443a14.12 14.12 0 01-4.48132 6.83716 15.66424 15.66424 0 01-1.694 1.22753c-.29913.17945-.61749.32764-.92444.492a5.252 5.252 0 01-.956.42041 11.0612 11.0612 0 01-4.04334.77514 21.53335 21.53335 0 003.72126-1.48584 16.566 16.566 0 003.25189-2.19287 22.14454 22.14454 0 002.77533-2.80566A30.021 30.021 0 00546.8889 348.2443zM530.19426 361.44156c1.19654.28662 2.24787.6958 3.31879 1.04492a20.97184 20.97184 0 003.296.876 3.645 3.645 0 01-1.803.39771 6.32868 6.32868 0 01-1.811-.32618 7.541 7.541 0 01-1.63373-.79174A5.43233 5.43233 0 01530.19426 361.44156zM544.78081 360.4357a9.4956 9.4956 0 01-1.0437 2.12549 12.7371 12.7371 0 01-1.44855 1.87012 9.19581 9.19581 0 01-1.8399 1.53247 4.14768 4.14768 0 01-2.28437.7395 8.90905 8.90905 0 001.81488-1.363c.543-.50927 1.07422-1.03637 1.5824-1.59472C542.60808 362.65543 543.60179 361.5065 544.78081 360.4357z"/><path fill="#c4ce6e" d="M540.06715,404.0565s-29.59515,1.064-41.20628-12.6347c-8.61651-10.16571,1.81018-25.39968,14.50341-21.34165C521.86211,372.79691,531.8673,381.463,540.06715,404.0565Z"/><path fill="#8b9d36" d="M540.06713,404.05655a125.60786,125.60786,0,0,1-11.80719-5.302c-3.84967-1.95776-7.59937-4.11572-11.249-6.44018q-2.71663-1.7754-5.30755-3.74073a53.84376,53.84376,0,0,1-4.98059-4.17895,39.89969,39.89969,0,0,1-4.36841-4.82471,18.59622,18.59622,0,0,1-2.96192-5.75732,19.94267,19.94267,0,0,0,3.34827,5.45556,39.98081,39.98081,0,0,0,4.50086,4.5586,83.8413,83.8413,0,0,0,10.31341,7.6499c3.57471,2.37549,7.309,4.50757,11.06372,6.60132q2.81708,1.571,5.68933,3.04614C536.20769,402.13858,538.13652,403.09488,540.06713,404.05655Z"/><path fill="#8b9d36" d="M509.65911 386.41568c.14032-2.9104.40539-5.76831.54126-8.62622.06622-1.42724.089-2.85058.03814-4.26831a18.32606 18.32606 0 00-.23993-2.102 7.48343 7.48343 0 00-.2561-1.02661 10.01845 10.01845 0 00-.45135-.97461 7.02251 7.02251 0 011.72363 4.02319 24.38221 24.38221 0 01.1839 4.395A33.57249 33.57249 0 01509.65911 386.41568zM495.88628 385.1818c1.75415-.28614 3.45789-.41187 5.13367-.64942a18.73105 18.73105 0 002.44751-.49487 3.71683 3.71683 0 002.07458-1.28735 2.94064 2.94064 0 01-1.78149 2.01074 9.11574 9.11574 0 01-2.60034.761A13.04917 13.04917 0 01495.88628 385.1818zM500.5053 393.15421c2.34643-.28076 4.6488-.467 6.87982-.93115a13.847 13.847 0 003.2038-1.0044 4.65262 4.65262 0 002.37365-2.27685 3.95328 3.95328 0 01-1.987 2.95483 10.00657 10.00657 0 01-3.38769 1.30518 17.53529 17.53529 0 01-3.5556.33252A15.7702 15.7702 0 01500.5053 393.15421zM517.122 391.79605c.56305-1.41577 1.07928-2.83276 1.59857-4.24072.49927-1.41528.99237-2.82739 1.39667-4.26269a42.45634 42.45634 0 001.01727-4.34375 27.07723 27.07723 0 00.35217-4.47876 13.76751 13.76751 0 01.42291 4.56958 23.19345 23.19345 0 01-.83233 4.53051A27.37164 27.37164 0 01517.122 391.79605zM511.98345 399.87174c.95019-.24365 1.86834-.49243 2.76782-.769a17.58813 17.58813 0 002.59253-1.001 10.15779 10.15779 0 002.27051-1.47827 8.65475 8.65475 0 001.65783-2.2395 5.05247 5.05247 0 01-1.087 2.77148 7.33289 7.33289 0 01-2.40589 1.84595 9.89242 9.89242 0 01-2.85528.85937A9.25382 9.25382 0 01511.98345 399.87174zM528.55516 381.7443a14.12029 14.12029 0 011.16449 8.09155 15.67778 15.67778 0 01-.45776 2.04126c-.10553.33252-.246.6543-.36743.98071a5.26763 5.26763 0 01-.4386.94776 11.06369 11.06369 0 01-2.51849 3.25683 21.54581 21.54581 0 001.8067-3.57666 16.56072 16.56072 0 00.98694-3.7959 22.148 22.148 0 00.22418-3.94018A30.02748 30.02748 0 00528.55516 381.7443zM524.77166 402.68619c1.08673-.57666 2.14569-.96582 3.17968-1.4126a20.96975 20.96975 0 003.05072-1.52441 3.64765 3.64765 0 01-1.08862 1.49145 6.32645 6.32645 0 01-1.57361.95362 7.52479 7.52479 0 01-1.74884.48755A5.43 5.43 0 01524.77166 402.68619zM535.04216 392.2797a9.50567 9.50567 0 01.624 2.28418 12.758 12.758 0 01.15148 2.36059 9.18855 9.18855 0 01-.36547 2.36646 4.1466 4.1466 0 01-1.22321 2.06616 8.90915 8.90915 0 00.45874-2.2229c.07-.74121.11945-1.48779.131-2.24268C534.882 395.38175 534.86669 393.86271 535.04216 392.2797z"/><path fill="#5e7c24" d="M541.81522,374.72649s29.53662,2.14315,41.63984-11.12284c8.98167-9.84456-.88225-25.44881-13.71509-21.8566C561.14867,344.152,550.834,352.44722,541.81522,374.72649Z"/><path fill="#50661a" d="M541.81523,374.72647c1.98688-.83422,3.94928-1.72363,5.8974-2.64062q2.93262-1.35206,5.82087-2.79346c3.84466-1.93066,7.65716-3.92968,11.3291-6.16357a82.16941,82.16941,0,0,0,10.58288-7.31665,39.99935,39.99935,0,0,0,4.64258-4.43921,19.16326,19.16326,0,0,0,3.47821-5.38623,19.32112,19.32112,0,0,1-3.237,5.58935,39.86557,39.86557,0,0,1-4.563,4.614,56.5418,56.5418,0,0,1-5.13336,3.96557q-2.65851,1.85706-5.4397,3.52539-5.57839,3.29883-11.44451,6.05518C549.84392,371.57242,545.86766,373.255,541.81523,374.72647Z"/><path fill="#50661a" d="M572.84667 358.20694a36.46314 36.46314 0 01-.74921-4.28466c-.17468-1.44117-.25043-2.89258-.2984-4.34717a29.111 29.111 0 01.30725-4.36377 7.29894 7.29894 0 011.72827-3.97754 8.67463 8.67463 0 00-.52838.93579 7.57058 7.57058 0 00-.33453 1.01123c-.07349.34961-.17865.6875-.231 1.04028l-.14362 1.05884a37.68621 37.68621 0 00-.15454 4.28858c-.006 1.436.07837 2.87207.14643 4.31127zM586.65526 357.47647a15.87871 15.87871 0 01-5.2514-.02783 9.84584 9.84584 0 01-2.54535-.80688 3.03066 3.03066 0 01-1.7638-1.94776 3.49161 3.49161 0 001.96943 1.48877 15.28814 15.28814 0 002.45324.63208C583.20049 357.11 584.91472 357.26749 586.65526 357.47647zM581.74852 365.27481a20.25223 20.25223 0 01-7.03723-.38354 10.42886 10.42886 0 01-3.30707-1.37305 4.05294 4.05294 0 01-1.95105-2.90747 4.47276 4.47276 0 002.216 2.48 12.802 12.802 0 003.19574 1.1753A48.924 48.924 0 00581.74852 365.27481zM565.19249 363.31119a28.09161 28.09161 0 01-2.03778-4.073 35.649 35.649 0 01-1.4422-4.33447 26.96855 26.96855 0 01-.69714-4.52637 15.06478 15.06478 0 01.44745-4.53955 25.96348 25.96348 0 00.874 8.90967c.33728 1.46143.80585 2.88989 1.27985 4.31763Q564.34059 361.2034 565.19249 363.31119zM570.033 371.56925a10.94758 10.94758 0 01-2.90259-.252 10.62928 10.62928 0 01-2.77442-.98657 7.61567 7.61567 0 01-2.3153-1.86621 5.45337 5.45337 0 01-1.09-2.7185 7.58249 7.58249 0 001.47015 2.38964 9.358 9.358 0 002.2367 1.62623 15.27484 15.27484 0 002.60193 1.07153C568.16326 371.11441 569.08452 371.3732 570.033 371.56925zM554.13365 352.84928a24.14776 24.14776 0 00-.68688 3.9707 18.85754 18.85754 0 00.04437 3.98242 14.65767 14.65767 0 00.89276 3.86353 18.34552 18.34552 0 001.80688 3.58667 12.09264 12.09264 0 01-2.26605-3.40015 13.38021 13.38021 0 01-1.07318-3.97925 16.491 16.491 0 01.10559-4.11352A14.2928 14.2928 0 01554.13365 352.84928zM557.15056 373.9152a8.2078 8.2078 0 01-3.47284-.783 5.28917 5.28917 0 01-2.6463-2.3794 12.44508 12.44508 0 002.91809 1.79566C554.98345 373.03409 556.05583 373.43717 557.15056 373.9152zM547.26659 363.141c-.02155 1.56469-.12445 3.092-.1228 4.616a20.03036 20.03036 0 00.09 2.26978 7.19738 7.19738 0 00.51422 2.21509 4.54366 4.54366 0 01-1.01013-2.13233 10.263 10.263 0 01-.238-2.35449A14.38377 14.38377 0 01547.26659 363.141z"/><path fill="#8b9d36" d="M540.69169,403.72025s29.53662,2.14316,41.63984-11.12283c8.98167-9.84456-.88225-25.44881-13.71509-21.85661C560.02514,373.14571,549.71043,381.441,540.69169,403.72025Z"/><path fill="#5e7c24" d="M540.6917,403.72037c1.96442-.89062,3.92688-1.77588,5.86218-2.72046q2.92081-1.37475,5.79669-2.83642c3.82868-1.95533,7.63825-3.94971,11.29724-6.19336a83.81234,83.81234,0,0,0,10.58564-7.26856,39.963,39.963,0,0,0,4.66418-4.39111,19.94583,19.94583,0,0,0,3.54511-5.32983,18.59988,18.59988,0,0,1-3.17,5.6455,39.89415,39.89415,0,0,1-4.54144,4.66187,53.85918,53.85918,0,0,1-5.12982,3.99463q-2.65916,1.86695-5.44049,3.54467c-3.73194,2.1897-7.55792,4.20923-11.47644,6.0254A125.64047,125.64047,0,0,1,540.6917,403.72037Z"/><path fill="#5e7c24" d="M571.72313 387.2006a33.57365 33.57365 0 01-1.22552-8.62989 24.3835 24.3835 0 01.34417-4.3855 7.0232 7.0232 0 011.86927-3.95776 10.05331 10.05331 0 00-.48664.95776 7.48792 7.48792 0 00-.29339 1.01661 18.32418 18.32418 0 00-.31641 2.09179c-.10266 1.415-.13177 2.83814-.11761 4.26685C571.52843 381.42154 571.68907 384.28727 571.72313 387.2006zM585.53173 386.47013a13.04688 13.04688 0 01-5.28278.14746 9.111 9.111 0 01-2.57074-.85547 2.94 2.94 0 01-1.707-2.07446 3.71655 3.71655 0 002.02618 1.3623 18.70547 18.70547 0 002.42786.58374C582.09124 385.93229 583.78923 386.12027 585.53173 386.47013zM580.625 394.26871a15.77648 15.77648 0 01-3.53852.25122 17.53636 17.53636 0 01-3.54107-.46216 10.00317 10.00317 0 01-3.33783-1.428 3.95279 3.95279 0 01-1.87787-3.02514 4.65421 4.65421 0 002.289 2.36206 13.85185 13.85185 0 003.165 1.12036C575.99633 393.63248 578.29039 393.9025 580.625 394.26871zM564.069 392.30509a27.37109 27.37109 0 01-3.65259-8.3645 23.19207 23.19207 0 01-.66644-4.55787 13.76667 13.76667 0 01.58935-4.551 27.07927 27.07927 0 00.18848 4.48852 42.49194 42.49194 0 00.85815 4.37793c.35169 1.449.79291 2.87818 1.24024 4.3108C563.09368 389.43473 563.55791 390.86979 564.069 392.30509zM568.90941 400.56314a9.25208 9.25208 0 01-2.93823-.11865 9.88631 9.88631 0 01-2.822-.96289 7.327 7.327 0 01-2.337-1.93237 5.05291 5.05291 0 01-.9851-2.80933 8.6592 8.6592 0 001.57507 2.29859 10.16382 10.16382 0 002.215 1.56 17.61164 17.61164 0 002.55432 1.095C567.06029 400.0026 567.96874 400.28482 568.90941 400.56314zM553.01012 381.84293a30.0307 30.0307 0 00-.546 3.98828 22.14865 22.14865 0 00.08032 3.94556 16.56171 16.56171 0 00.84778 3.82934 21.53133 21.53133 0 001.675 3.64014 11.06227 11.06227 0 01-2.398-3.34644 5.27335 5.27335 0 01-.40369-.96313c-.10943-.33057-.2381-.65747-.33142-.99341a15.6826 15.6826 0 01-.383-2.05664A14.12 14.12 0 01553.01012 381.84293zM556.027 402.90909a5.43073 5.43073 0 01-1.818-.071 7.53152 7.53152 0 01-1.72992-.55078 6.32635 6.32635 0 01-1.53772-1.01075 3.64566 3.64566 0 01-1.0335-1.53 20.97251 20.97251 0 002.9931 1.63477C553.918 401.86539 554.962 402.29288 556.027 402.90909zM546.14305 392.13468c.11756 1.58813.04694 3.10571.055 4.6167-.016.75488.00622 1.50293.04913 2.24609a8.91216 8.91216 0 00.37732 2.23828 4.14745 4.14745 0 01-1.147-2.10962 9.18752 9.18752 0 01-.27881-2.37793 12.74413 12.74413 0 01.23749-2.35351A9.50256 9.50256 0 01546.14305 392.13468z"/><path fill="#8b9d36" d="M550.56165,351.20917s-8.18919-28.45948,2.2952-43.03865c7.78035-10.81905,25.08357-4.38569,24.21546,8.91213C576.49113,325.98524,570.5017,337.78912,550.56165,351.20917Z"/><path fill="#5e7c24" d="M550.56163,351.20914a125.60731,125.60731,0,0,1,2.28937-12.73877c.96887-4.209,2.15588-8.36914,3.52881-12.47266q1.06567-3.06518,2.34631-6.05444a53.834,53.834,0,0,1,2.85053-5.8435,39.90887,39.90887,0,0,1,3.625-5.40528,18.59728,18.59728,0,0,1,4.87024-4.26636,19.949,19.949,0,0,0-4.484,4.56812,39.965,39.965,0,0,0-3.33472,5.46973,83.809,83.809,0,0,0-4.92895,11.85717c-1.44056,4.043-2.60639,8.18213-3.73011,12.33179q-.84311,3.11316-1.57977,6.25708C551.48937,347.0004,551.02776,349.10343,550.56163,351.20914Z"/><path fill="#5e7c24" d="M560.32561 317.43766c2.85785-.56763 5.69507-1.00147 8.50116-1.56079 1.40082-.28077 2.78735-.60279 4.15076-.99512a18.31622 18.31622 0 001.98163-.74121 7.5027 7.5027 0 00.9342-.49658 9.99646 9.99646 0 00.83661-.67383 7.02232 7.02232 0 01-3.487 2.6455 24.39221 24.39221 0 01-4.22016 1.24122A33.56615 33.56615 0 01560.32561 317.43766zM558.19231 303.7753c.70184 1.63282 1.236 3.25562 1.87164 4.82422a18.73335 18.73335 0 001.072 2.25537 3.71706 3.71706 0 001.75092 1.70142 2.93983 2.93983 0 01-2.38184-1.24243 9.10559 9.10559 0 01-1.36725-2.33887A13.0462 13.0462 0 01558.19231 303.7753zM551.5736 310.185c.83972 2.209 1.57721 4.39795 2.56707 6.45044a13.84616 13.84616 0 001.74927 2.866 4.6548 4.6548 0 002.78333 1.75268 3.95334 3.95334 0 01-3.34754-1.21362 10.0009 10.0009 0 01-2.08557-2.97144 17.525 17.525 0 01-1.18256-3.36962A15.76769 15.76769 0 01551.5736 310.185zM556.90966 325.98014c1.50976.2041 3.0097.3623 4.50134.52563 1.49408.14234 2.98346.2793 4.47394.32446a42.4767 42.4767 0 004.46087-.06323 27.095 27.095 0 004.43085-.74145 13.76714 13.76714 0 01-4.33154 1.51538 23.214 23.214 0 01-4.59741.28808A27.37261 27.37261 0 01556.90966 325.98014zM547.83092 322.94693c.46619.86328.92975 1.69385 1.41559 2.49976a17.59351 17.59351 0 001.59814 2.27344 10.16314 10.16314 0 001.98346 1.8457 8.65854 8.65854 0 002.5741 1.06714 5.05252 5.05252 0 01-2.95221-.38452 7.32687 7.32687 0 01-2.37286-1.88819 9.8871 9.8871 0 01-1.5243-2.56274A9.25241 9.25241 0 01547.83092 322.94693zM569.42772 334.64322a14.11774 14.11774 0 01-7.5697 3.08667 15.68929 15.68929 0 01-2.09131.04956c-.3482-.022-.69452-.08056-1.04053-.11938a5.257 5.257 0 01-1.02563-.19653 11.06191 11.06191 0 01-3.76917-1.656 21.54863 21.54863 0 003.90729.88794 16.5462 16.5462 0 003.922.03979 22.15272 22.15272 0 003.87732-.7351A30.04879 30.04879 0 00569.42772 334.64322zM548.19249 336.03629c.82251.915 1.45606 1.84839 2.13965 2.74365a20.96638 20.96638 0 002.21686 2.59155 3.64608 3.64608 0 01-1.71033-.69555 6.33384 6.33384 0 01-1.306-1.29639 7.526 7.526 0 01-.89587-1.5791A5.43007 5.43007 0 01548.19249 336.03629zM560.77373 343.48551a9.513 9.513 0 01-2.06549 1.15771 12.74057 12.74057 0 01-2.254.71778 9.19044 9.19044 0 01-2.38446.21777 4.14751 4.14751 0 01-2.30072-.68726 8.91144 8.91144 0 002.26782-.09253c.73615-.11132 1.47266-.24389 2.20795-.415C557.72515 344.08 559.19536 343.69791 560.77373 343.48551z"/><path fill="#d6694b" d="M520.85638,407.00858v5.34632a1.85289,1.85289,0,0,0,1.83439,1.87085h36.75276a1.85289,1.85289,0,0,0,1.83439-1.87085v-4.927a1.85338,1.85338,0,0,0-1.81387-1.87073l-36.75276-.41936A1.8524,1.8524,0,0,0,520.85638,407.00858Z"/><polygon fill="#e19974" points="522.611 414.226 523.918 441.82 557.352 441.82 559.524 414.226 522.611 414.226"/><circle cx="451.145" cy="136.218" r="28.034" fill="#748ce2"/><path fill="#3b5a9e" d="M451.16143,165.255a29.03555,29.03555,0,1,1,4.501-57.71777h0a29.03582,29.03582,0,0,1-4.501,57.71777Zm-.03174-56.07324a27.05113,27.05113,0,1,0,4.22119.332A27.07641,27.07641,0,0,0,451.12969,109.1818Z"/><path fill="#3b5a9e" d="M467.02715,139.21988a.53047.53047,0,0,1-.07813-.00586l-17.85742-2.8125a.5002.5002,0,1,1,.15527-.98828l17.85743,2.8125a.50009.50009,0,0,1-.07715.99414Z"/><path fill="#3b5a9e" d="M454.26836,140.4523a.5009.5009,0,0,1-.47656-.34765l-6.374-19.99121a.50032.50032,0,0,1,.95313-.30469l6.374,19.99121a.50086.50086,0,0,1-.32471.62891A.51257.51257,0,0,1,454.26836,140.4523Z"/><path fill="#ffba55" d="M213.04841 210.56584H139.40418a2 2 0 01-2-2V128.83846a2 2 0 012-2h87.28846a2 2 0 012 2v66.67505zM226.69266 210.56585a2 2 0 002-2V195.51354l-15.64422 15.05231z"/><path fill="#e6952a" d="M153.04825 136.21825a1.49977 1.49977 0 01-1.5-1.5v-14.3999a1.5 1.5 0 013 0v14.3999A1.49976 1.49976 0 01153.04825 136.21825zM143.04825 136.21825a1.49977 1.49977 0 01-1.5-1.5v-14.3999a1.5 1.5 0 013 0v14.3999A1.49976 1.49976 0 01143.04825 136.21825zM163.04825 136.21825a1.49977 1.49977 0 01-1.5-1.5v-14.3999a1.5 1.5 0 013 0v14.3999A1.49976 1.49976 0 01163.04825 136.21825zM173.04825 136.21825a1.49977 1.49977 0 01-1.5-1.5v-14.3999a1.5 1.5 0 013 0v14.3999A1.49976 1.49976 0 01173.04825 136.21825zM183.04825 136.21825a1.49977 1.49977 0 01-1.5-1.5v-14.3999a1.5 1.5 0 013 0v14.3999A1.49976 1.49976 0 01183.04825 136.21825zM193.04825 136.21825a1.49977 1.49977 0 01-1.5-1.5v-14.3999a1.5 1.5 0 013 0v14.3999A1.49976 1.49976 0 01193.04825 136.21825zM203.04825 136.21825a1.49977 1.49977 0 01-1.5-1.5v-14.3999a1.5 1.5 0 013 0v14.3999A1.49976 1.49976 0 01203.04825 136.21825zM213.04825 136.21825a1.49977 1.49977 0 01-1.5-1.5v-14.3999a1.5 1.5 0 013 0v14.3999A1.49976 1.49976 0 01213.04825 136.21825zM223.04825 136.21825a1.49977 1.49977 0 01-1.5-1.5v-14.3999a1.5 1.5 0 013 0v14.3999A1.49976 1.49976 0 01223.04825 136.21825z"/><polygon fill="#e6952a" points="228.623 195.442 212.979 195.586 213.118 210.638 228.623 195.442"/><circle cx="191.548" cy="151.718" r="6.48" fill="#e6952a"/><circle cx="209.528" cy="151.718" r="6.48" fill="#e6952a"/><circle cx="154.137" cy="167.718" r="6.48" fill="#e6952a"/><circle cx="173.048" cy="167.718" r="6.48" fill="#e6952a"/><circle cx="191.548" cy="167.718" r="6.48" fill="#e6952a"/><circle cx="209.528" cy="167.718" r="6.48" fill="#e6952a"/><circle cx="154.137" cy="183.718" r="6.48" fill="#e6952a"/><circle cx="173.048" cy="183.718" r="6.48" fill="#e6952a"/><circle cx="191.548" cy="183.718" r="6.48" fill="#e6952a"/><circle cx="209.528" cy="183.718" r="6.48" fill="#e6952a"/><circle cx="154.137" cy="198.718" r="6.48" fill="#e6952a"/><path fill="#af2f2f" d="M169.2824,177.37906a37.70123,37.70123,0,0,1,4.32031,6.00977c.61792,1.06225,1.22192,2.13281,1.76135,3.2417a26.77711,26.77711,0,0,1,1.45008,3.42676,26.81644,26.81644,0,0,1-2.31592-2.91236c-.71582-1.00415-1.36707-2.04663-2.0044-3.09741A37.72677,37.72677,0,0,1,169.2824,177.37906Z"/><path fill="#af2f2f" d="M176.81414,177.37906a37.72681,37.72681,0,0,1-3.21143,6.66846c-.63733,1.05078-1.28857,2.09326-2.00439,3.09741a26.81887,26.81887,0,0,1-2.31592,2.91236,26.77707,26.77707,0,0,1,1.45007-3.42676c.53943-1.10889,1.14343-2.17945,1.76135-3.2417A37.70067,37.70067,0,0,1,176.81414,177.37906Z"/><path fill="#935b50" d="M596.92119,442.81949H103.07891a1,1,0,1,1,0-2H596.92119a1,1,0,0,1,0,2Z"/><polygon fill="#fcd095" points="170.24 210.566 170.24 199.974 212.979 199.974 213.118 210.638 170.24 210.566"/><polygon fill="#efa54d" points="213.118 210.638 212.979 199.974 227.059 199.974 213.118 210.638"/><polygon fill="#fcd095" points="213.118 210.638 228.693 210.638 228.693 199.974 224.553 199.974 213.118 210.638"/><polygon fill="#935b50" points="320.473 366.545 380.736 366.545 380.736 332.9 320.582 332.9 320.473 366.545"/><path fill="#ef8870" d="M314.92938,329.3224h71.93079c4.00466,0,5.25109-3.24643,5.25109-7.25109V264.78122c0-4.00467-1.24643-7.25109-5.25109-7.25109H314.92938c-4.00467,0-5.25109,3.24642-5.25109,7.25109v57.29009C309.67829,326.076,310.92471,329.3224,314.92938,329.3224Z"/><rect width="96.875" height="9.958" x="302.458" y="356.586" fill="#d6694b" rx="1.611" transform="rotate(-180 350.895 361.566)"/><rect width="83.823" height="6.284" x="309.129" y="366.545" fill="#935b50" rx="1.611" transform="rotate(-180 351.04 369.687)"/><rect width="9.281" height="32.649" x="346.544" y="372.829" fill="#d6694b" transform="rotate(-180 351.185 389.154)"/><polygon fill="#935b50" points="346.544 410.455 287.032 431.421 287.032 423.88 346.544 405.478 355.826 405.478 415.386 423.88 415.386 431.421 355.826 410.455 346.544 410.455"/><rect width="13.632" height="9.861" x="344.369" y="403.158" fill="#e19974" rx="1.611" transform="rotate(-180 351.185 408.089)"/><rect width="8.846" height="15.662" x="414.688" y="423.72" fill="#d6694b" rx="2.014" transform="rotate(-180 419.111 431.551)"/><rect width="8.846" height="15.662" x="278.883" y="423.72" fill="#d6694b" rx="2.014"/><path fill="#f9ad9b" d="M294.2533,268.20926s-9.93644-25.38075-10.29729-25.453-2.87693-.35256,1.63575,12.88c0,0-3.38408-.2447-5.05024,6.05406a6.85584,6.85584,0,0,0,1.18811,5.90186c1.57285,2.06089,3.86658,4.63336,5.609,4.77951Z"/><path fill="#f9977a" d="M428.48471,410.83028l3.5076,10.08291a56.7806,56.7806,0,0,0,27.13756,12.87729s4.99928,2.2956,4.99928,5.91961h-49.2863v-18.7969l-1.52089-9.645Z"/><path fill="#d6694b" d="M463.32317,437.25627H415.37431a1.22481,1.22481,0,0,0-1.2248,1.22481v.00421a1.2248,1.2248,0,0,0,1.2248,1.2248l49.43169.00014S466.21745,438.22257,463.32317,437.25627Z"/><path fill="#d6694b" d="M449.09341 437.87012s-.4658-2.52876 2.05162-6.02863a5.13886 5.13886 0 00-4.34287-1.55434 15.50856 15.50856 0 00-1.39979 3.06716c-.60837 1.70539-1.03376 3.75441-.30171 5.12895zM437.78723 425.1191s-4.798 6.92822-2.30252 12.81757h-4.69152s-1.90338-9.75537 3.14726-15.18466C433.94045 422.752 437.08247 422.83371 437.78723 425.1191z"/><path fill="#f9977a" d="M360.96511,402.24465l.24915,10.67269s9.05124,13.57691,23.78985,21.18643c0,0,4.05534,3.71709,2.94483,7.16677l-46.91529-15.10281,5.75994-17.89264,1.50778-9.647Z"/><path fill="#d6694b" d="M387.93366,438.68779l-45.64219-14.693a1.2248,1.2248,0,0,0-1.5412.79056l-.00129.004a1.22479,1.22479,0,0,0,.79056,1.54119l47.05365,15.1475S390.3926,440.4945,387.93366,438.68779Z"/><path fill="#d6694b" d="M374.20035 434.91167s.33149-2.54984 3.80027-5.10993a5.13885 5.13885 0 00-3.65765-2.81035 15.50834 15.50834 0 00-2.27231 2.49067c-1.10169 1.43693-2.1345 3.257-1.85887 4.78976zM366.53015 419.52025s-5.875 4.91393-5.30422 11.28466l-4.46583-1.43762s.36231-9.65859 6.83367-13.279C363.59377 416.08826 366.55962 417.12884 366.53015 419.52025z"/><path fill="#595959" d="M356.99259,269.66136a59.407,59.407,0,0,0,.98974,6.54c.23975,1.17993.52,2.40991.85987,3.65991,1.18017,4.41015,4.73,17.71,15.55029,28.68017V297.89134a54.73311,54.73311,0,0,0,8.2998,10.99c-1.31-.02979-2.60986-.04981-3.91015-.06983l-4.17969-.06006c.08984.08985.17969.17994.27.26a49.48825,49.48825,0,0,0,6.09961,5.15992c4.96,3.56,14.97021,9.3999,22.15039,9.21a8.21464,8.21464,0,0,0,5.19971-1.75c3.41015-2.85987,3.68994-8.92993,2.49023-12.92993-1.52-5.07007-5.70019-7.78-10.20019-10.68995a30.86622,30.86622,0,0,0-3.44971-1.97c-3.89014-1.8601-5.38037-1.29-7.74024-3.75-1.33007-1.39013-2.37988-3.18994-3.83007-14.68994-.21-1.62012-.41993-3.42016-.63965-5.45019-1.02051-9.33008-.81006-10.12989-1.74024-13.67993-1.03027-3.94-2.48-9.22-6.71972-14.16993-1.31055-1.53-4.6001-5.38012-8.08008-6.95a6.00681,6.00681,0,0,0-4.1001-.51025,5.30866,5.30866,0,0,0-2.75,1.97021,9.87843,9.87843,0,0,0-1,1.57984c-.06982.14013-.14014.28-.21.42993-.04.09009-.08008.17016-.12012.26025a18.55053,18.55053,0,0,0-.68017,1.73975,43.07067,43.07067,0,0,0-1.56983,7.05029c-.25,1.68994-.45019,3.34986-.62988,4.86987-.20019,1.66993-.43018,3.72-.55029,6.11988a.494.494,0,0,0,0,.12011A59.07656,59.07656,0,0,0,356.99259,269.66136Z"/><path fill="#595959" d="M361.63865,259.31652c-3.47477,3.64991-18.037.654-12.6631-2.15787-1.49508-.23355-2.7077-.35944-3.839-.654-7.51552-1.95638-15.35916-12.39371-12.96266-20.5277,2.08864-7.08919,11.19918-9.86069,13.41568-10.53511a17.26362,17.26362,0,0,1,16.59262,2.91117,19.67845,19.67845,0,0,1,6.08719,8.59571C369.568,240.257,369.56061,250.99523,361.63865,259.31652Z"/><path fill="#f9ad9b" d="M341.5492,262.57152l-2.91675,2.20029,3.429,12.15147,17.87249-.815,5.02508-12.72942s-10.26989-.94951-12.133-7.08172Z"/><path fill="#f9977a" d="M342.32829,257.72493s4.85983,3.55052,10.43927-.92033c0,0-1.84948,7.82077-11.21836,5.76692A5.57074,5.57074,0,0,0,342.32829,257.72493Z"/><path fill="#f9ad9b" d="M337.37288,240.41866c1.825-8.96726,8.2722-15.22559,14.40027-13.97845,4.72979.9626,7.88418,6.11632,8.23965,12.54057a1.748,1.748,0,0,1,1.46916-.21324c1.331.49463,1.6113,3.045.626,5.69622-.83187,2.2385-2.29905,3.82726-3.53712,3.97189-2.58513,7.03058-8.11355,11.55495-13.40651,10.47778C339.03624,257.66624,335.5479,249.38587,337.37288,240.41866Z"/><path fill="#f9977a" d="M344.753,239.69422a5.09426,5.09426,0,0,1,.0176,3.24236,11.77584,11.77584,0,0,1-1.33122,3.00052c-.29769.46961-.7587.84127-.68828,1.27172a1.85192,1.85192,0,0,0,.79372,1.17388,3.99626,3.99626,0,0,0,3.03664.40637,3.72292,3.72292,0,0,1-3.225-.13185,2.06329,2.06329,0,0,1-.99731-1.41066,1.26046,1.26046,0,0,1,.258-.89166l.46465-.66076a12.93438,12.93438,0,0,0,1.37535-2.86492A5.80577,5.80577,0,0,0,344.753,239.69422Z"/><path fill="#595959" d="M354.3258 241.92014a.43265.43265 0 00.22973-.70145c-.10835-.12772-2.6951-3.11507-6.20416-2.49837a.43273.43273 0 10.14972.85242c3.02638-.53175 5.37166 2.17907 5.39509 2.20654A.43285.43285 0 00354.3258 241.92014zM342.9613 238.72079a.43287.43287 0 00.05408-.8263 8.35158 8.35158 0 00-5.232-.08248.4328.4328 0 00.288.81628 7.554 7.554 0 014.63764.07611A.43306.43306 0 00342.9613 238.72079zM353.41165 243.81286a7.84873 7.84873 0 00-2.86887-1.45517 3.80272 3.80272 0 00-1.55647-.02874 5.2042 5.2042 0 00-1.51174.58253 3.36472 3.36472 0 011.42978-.90532 3.28432 3.28432 0 011.73132-.071 4.534 4.534 0 011.56578.70507A4.82459 4.82459 0 01353.41165 243.81286z"/><circle cx="349.511" cy="243.02" r=".971" fill="#595959"/><circle cx="340.274" cy="241.866" r=".971" fill="#595959"/><path fill="#595959" d="M343.507,242.8618a7.84891,7.84891,0,0,0-2.86887-1.45518,3.80289,3.80289,0,0,0-1.55647-.02873,5.2042,5.2042,0,0,0-1.51174.58253,3.36472,3.36472,0,0,1,1.42978-.90532,3.2833,3.2833,0,0,1,1.73132-.071,4.53418,4.53418,0,0,1,1.56578.70508A4.82425,4.82425,0,0,1,343.507,242.8618Z"/><path fill="#dd765e" d="M361.63861,241.86905a4.233,4.233,0,0,0-.68666-.86161.618.618,0,0,0-.79533-.10483,2.90423,2.90423,0,0,0-.72633.73229c-.23273.28768-.42236.6131-.6729.91494a4.33827,4.33827,0,0,1,.39241-1.09424,2.23572,2.23572,0,0,1,.7925-.9288.90742.90742,0,0,1,.6899-.12072,1.00882,1.00882,0,0,1,.55734.37035A2.18256,2.18256,0,0,1,361.63861,241.86905Z"/><path fill="#dd765e" d="M360.051,244.806a2.1408,2.1408,0,0,1-.44867-1.01734,3.716,3.716,0,0,1-.03946-1.11691,4.72773,4.72773,0,0,1,.24689-1.07987l.20946-.50958c.09391-.16049.17324-.32471.27827-.47751-.09431.7326-.2384,1.41815-.30437,2.11189a9.16977,9.16977,0,0,0-.06112,1.03778A4.56569,4.56569,0,0,0,360.051,244.806Z"/><circle cx="360.545" cy="247.205" r="1.927" fill="#fcd095"/><path fill="#f44b47" d="M349.39089,252.20822s-5.40571,3.38583-8.47319-.36619Z"/><path fill="#595959" d="M346.97193,227.90845c1.34756.32313,2.09306,1.35642,3.58408,3.42293,2.88014,3.99182,4.5863,9.4811,6.57965,10.45409a1.22979,1.22979,0,0,0,.72881.148c.77969-.114,1.09385-1.12382,1.9606-2.54476.655-1.07383.94-1.25849,1.3218-1.86008a8.68085,8.68085,0,0,0,.39128-7.83134,9.19728,9.19728,0,0,0-5.05728-4.46257c-4.54132-1.94482-8.93048-.246-10.04363.18482-6.68759,2.58842-9.54279,9.20922-9.30644,9.404C337.40865,235.0526,342.48058,226.83148,346.97193,227.90845Z"/><path fill="#8b9d36" d="M328.69615,318.77142c-4.69363,6.6794-6.0826,16.16629-6.27041,24.15418a14.83535,14.83535,0,0,0,14.81506,15.21957h14.85673l-7.01631,54.99808h18.62752l14.25532-54.95666h12.65L412.2725,411.634H430.845c-4.61228-32.286-14.5274-60.153-20.2344-74.33386a15.93,15.93,0,0,0-14.78838-9.9854h-19.209l-3.71451-7.05756Z"/><path fill="#fcd095" d="M284.20255,273.76145l15.19971,36.18995a9.19464,9.19464,0,0,0,13.96,3.82006l14.27-10.59008.14013-.09986.00977.23975.91015,15.45019,35.35987,1.19.24023.01,8.60987.29,14.27,6.09986a9.41681,9.41681,0,0,0,1.04981.95019,9.73064,9.73064,0,0,0,11.37012.45,8.96272,8.96272,0,0,0,2.30029-2.22,11.27761,11.27761,0,0,0,1.23-2.16015c1.29-3.00977,1.59961-7.21-.14014-13.06006a89.48969,89.48969,0,0,0-5.81982-14.27979,112.93926,112.93926,0,0,0-11.57031-18.43994c-6.98-8.92016-14.62012-15.15014-20.62989-14.22021a33.73575,33.73575,0,0,1-7.96972,6.28c-5.54,3.05-12.88037,4.31006-18.36035-4.8899,0,0-8.63965-4.18017-29.38965,26.19l-12.47022-23.25a1.9921,1.9921,0,0,0-2.62988-.8501l-.21045.1001-7.90967,3.82006-.84033.40992A1.99539,1.99539,0,0,0,284.20255,273.76145Zm98.48974,35.11988c-1.31-.02979-2.60986-.04981-3.91015-.06983l-4.17969-.06006q-.10546-.10509-.21-.21V297.89134A54.73311,54.73311,0,0,0,382.69229,308.88133Z"/><path fill="#5e7c24" d="M377.96406 358.18656a54.52233 54.52233 0 001.51956-18.057 24.44064 24.44064 0 00-2.43427-8.75232 13.47517 13.47517 0 00-6.51046-6.2373 19.2637 19.2637 0 00-8.98618-1.2732c-3.03085.09094-6.05876.27161-9.08179.50818-3.02111.25989-6.03776.59-9.03228 1.07471a42.9835 42.9835 0 00-8.79929 2.23657 43.23874 43.23874 0 018.82672-2.06445c2.99166-.46363 6.00556-.77295 9.02353-1.01209 3.02014-.21582 6.04459-.376 9.0721-.44629a26.155 26.155 0 014.51338.12195 16.484 16.484 0 014.32823 1.16321 13.16352 13.16352 0 016.39771 6.0603 24.19532 24.19532 0 012.45878 8.64514 47.76543 47.76543 0 01.05544 9.05713A61.73541 61.73541 0 01377.96406 358.18656zM390.61405 358.18656a20.44737 20.44737 0 00-1.04065-3.236 13.24146 13.24146 0 00-1.63814-2.98071c.46084 1.038.90265 2.06482 1.31943 3.11279C389.70451 356.11551 390.10905 357.16654 390.61405 358.18656zM352.09753 358.14517a34.89362 34.89362 0 00.74458-3.495 34.455 34.455 0 00.4041-3.55066 34.46889 34.46889 0 00-.74459 3.49512A34.88607 34.88607 0 00352.09753 358.14517zM410.14951 344.09549a8.92324 8.92324 0 01-3.09529-.04907 6.17011 6.17011 0 01-2.75517-1.26636 7.15119 7.15119 0 01-1.88872-2.38452 14.92853 14.92853 0 01-.60918-1.42688l-.43788-1.50427c.08086.51623.1763 1.03418.27565 1.55273a14.57748 14.57748 0 00.53212 1.49378 7.03681 7.03681 0 001.91344 2.5393A6.76164 6.76164 0 00410.14951 344.09549z"/><path fill="#5e7c24" d="M372.55587,346.03263a8.92318,8.92318,0,0,1-3.09528-.04908,6.17,6.17,0,0,1-2.75517-1.26635,7.15145,7.15145,0,0,1-1.88872-2.38453,14.9286,14.9286,0,0,1-.60919-1.42688l-.43786-1.50439c.08085.51636.1763,1.03418.27565,1.55286a14.57577,14.57577,0,0,0,.53212,1.49377,7.03682,7.03682,0,0,0,1.91343,2.53931A6.76167,6.76167,0,0,0,372.55587,346.03263Z"/><path fill="#ffba55" d="M326.37458,289.84476a17.06106,17.06106,0,0,0-.5176,3.33728,22.52979,22.52979,0,0,0,.1326,3.38477,28.25,28.25,0,0,0,1.619,6.57617l.01126.02978.02068.02063a9.7735,9.7735,0,0,0,2.71653,1.89746,8.41477,8.41477,0,0,0,6.44683.34668,10.61427,10.61427,0,0,0,1.50257-.65881c.47833-.26233.92551-.57959,1.38743-.86536-.47748.26282-.9376.5553-1.425.79126a10.48664,10.48664,0,0,1-1.5159.57471,8.1924,8.1924,0,0,1-3.18116.36609,9.086,9.086,0,0,1-5.67707-2.68335l.03173.05a29.6089,29.6089,0,0,1-1.67147-6.47913A19.6071,19.6071,0,0,1,326.37458,289.84476Z"/><path fill="#5e7c24" d="M409.51736 412.13419h24.42285a.5.5 0 000-1H409.51736a.5.5 0 000 1zM342.20779 413.64347h24.42285a.5.5 0 100-1H342.20779a.5.5 0 100 1z"/><path fill="#ffba55" d="M359.55118,305.0637a11.42421,11.42421,0,0,0,2.94922.40381c.1582.00293.31592-.00586.47363-.01172.002.11035-.00049.22437.002.33447-.1587.00879-.31739.02075-.47608.02222a10.62451,10.62451,0,0,1-3.02246-.49341,13.94852,13.94852,0,0,1-1.42432-.55151c-.45361-.22949-.895-.48316-1.33154-.73584A18.44308,18.44308,0,0,0,359.55118,305.0637Z"/><path fill="#f9ad9b" d="M364.2817,321.40876s-12.03991,5.91325-13.31466,4.60152,3.27271-4.7108,3.27271-4.7108l-2.677-2.75462-12.18173-.41938a1.19678,1.19678,0,0,1-1.14913-1.32032h0a1.195,1.195,0,0,1,.70493-.9698c2.75879-1.2237,16.13024-7.29429,24.07734-2.92458Z"/><path fill="#ffba55" d="M362.62247 310.75144c.12988 1.19.33984 2.27.50977 3.40992l.91992 5.8.15039.97c.16992.97.27978 1.94018.48974 2.92016l.06006.29981c.00977.06006.02979.12011.04.18017a2.08675 2.08675 0 001.23 1.22 4.8474 4.8474 0 001.73.10987l2.93994-.07984.72022-.02 3.18994-.09008-3.34033.01h-.79l-2.71973.01a5.03417 5.03417 0 01-1.66015-.1101 1.88987 1.88987 0 01-1.10987-1.11988c-.01025-.03-.01025-.06005-.02-.09008-.02-.1001-.04-.2-.06-.31006-.19971-.96-.29981-1.98975-.47022-2.96l-.13965-.92993-.87988-5.84986c-.15039-1.12012-.36035-2.28027-.48047-3.36011a1.89008 1.89008 0 01.65039-1.38989 1.99 1.99 0 011.48975-.43017l9.32031.07006h.48l4.5498.04 3.46.01978-.01172-.012c3.2041.01782 6.41015.03686 9.61181.02221q-4.905-.12012-9.79-.20019c-1.31-.02979-2.60986-.04981-3.91015-.06983l-4.17969-.06006-.21-.01-9.32031-.13989a2.26313 2.26313 0 00-1.69971.52A2.16028 2.16028 0 00362.62247 310.75144zM320.58314 308.33571c-2.68994-9.0835-10.48-15.61231-18.59521-16.02979a18.31224 18.31224 0 00-9.14209 2.03516l6.55664 15.61035a9.19458 9.19458 0 0013.96 3.81982l7.23779-5.37158C320.59437 308.37868 320.58949 308.3567 320.58314 308.33571z"/><rect width="342.011" height="5.666" x="148.995" y="318.967" fill="#935b50" rx="1.274" transform="rotate(-180 320 321.8)"/><rect width="313.375" height="117.187" x="163.06" y="324.633" fill="#935b50" transform="rotate(-180 319.747 383.226)"/><path fill="#c38f86" d="M159.87676,324.6332H479.6181a2.54728,2.54728,0,0,1,2.54728,2.54728V343.166a0,0,0,0,1,0,0H157.32948a0,0,0,0,1,0,0V327.18047a2.54728,2.54728,0,0,1,2.54728-2.54728Z" transform="rotate(-180 319.747 333.9)"/><path fill="#c2ccf2" d="M397.69724,314.98687h55.007a5.57212,5.57212,0,0,0,5.55542-5.14111l2.85013-36.736a5.57212,5.57212,0,0,0-5.55542-6.00313H394.84711a5.57211,5.57211,0,0,0-5.55542,6.00313l2.85013,36.736A5.57212,5.57212,0,0,0,397.69724,314.98687Z"/><ellipse cx="425.201" cy="291.047" fill="#748ce2" rx="6.062" ry="2.205"/><rect width="63.329" height="4.152" x="393.536" y="314.987" fill="#748ce2" rx="2.076" transform="rotate(-180 425.2 317.063)"/><path fill="#748ce2" d="M470.26006,319.63883H320.91l.0669-.55957a23.69157,23.69157,0,0,0-5.32911-18.03125,19.49083,19.49083,0,0,0-13.60839-7.24317c-5.24268-.27734-10.85547,2.17969-14.98584,6.55274a23.5039,23.5039,0,0,0-6.23975,18.72754l.06055.55371H169.74V199.47477h300.52Zm-148.23-1h147.23V200.47477H170.74V318.63883H279.76543a24.49021,24.49021,0,0,1,6.561-18.96778c4.39307-4.65234,10.1294-7.16406,15.76465-6.86425a20.48713,20.48713,0,0,1,14.32129,7.59668A24.6838,24.6838,0,0,1,322.03008,318.63883Z"/><path fill="#f9977a" d="M281.36765 304.25349s7.17934-9.7125 8.9175-9.14291-.71034 5.69191-.71034 5.69191l3.65013 1.19613 10.98286-5.28649a1.19677 1.19677 0 011.6309.63555h0a1.195 1.195 0 01-.17385 1.18626c-1.87482 2.365-12.63031 13.56841-21.69776 13.38971zM306.72967 412.48444l3.42329 10.11185s12.691 10.2565 29.029 13.12011c0 0 4.97993 2.33725 4.94967 5.96114l-49.28457-.41149.15693-18.79624-1.44031-9.65733z"/><path fill="#d6694b" d="M343.34622,439.21708l-47.9472-.40033a1.22481,1.22481,0,0,0-1.235,1.21454l0,.00421a1.22481,1.22481,0,0,0,1.21453,1.235l49.43.41284S346.23233,440.20751,343.34622,439.21708Z"/><path fill="#d6694b" d="M329.11183 439.7121s-.44468-2.53256 2.10187-6.0113a5.13882 5.13882 0 00-4.32974-1.59053 15.50816 15.50816 0 00-1.42534 3.05535c-.62259 1.70026-1.06507 3.74566-.34453 5.12626zM317.19734 427.31158s-4.14053 6.44347-1.6943 12.35345l-4.69135-.03917s-2.537-9.32647 2.55876-14.7134C313.37045 424.91246 316.51169 425.02038 317.19734 427.31158z"/><path fill="#f9977a" d="M317.01287,379.66605l3.55186,10.06741s12.82066,10.094,29.19385,12.74917c0,0,5.00931,2.27361,5.02523,5.89758l-49.28582.21652L305.41541,389.8l-1.56324-9.63819Z"/><path fill="#d6694b" d="M353.96707,405.93l-47.94841.21064a1.22481,1.22481,0,0,0-1.21941,1.23017l0,.00422a1.22481,1.22481,0,0,0,1.23017,1.21941l49.43122-.217S356.86556,406.88354,353.96707,405.93Z"/><path fill="#d6694b" d="M339.74014 406.60631s-.47691-2.52669 2.02511-6.03759a5.13879 5.13879 0 00-4.34966-1.53523 15.50823 15.50823 0 00-1.38629 3.07327c-.60088 1.708-1.01726 3.75892-.27918 5.13023zM327.66861 394.35861s-4.05809 6.4957-1.53675 12.374l-4.69147.02061s-2.65566-9.29339 2.37108-14.74482C323.81147 392.00844 326.95382 392.07633 327.66861 394.35861z"/><path fill="#6c7fd8" d="M257.77345,339.07274,290.31,327.75125a16.40739,16.40739,0,0,1,20.78453,9.80362,279.72,279.72,0,0,1,13.11526,47.268,2.00638,2.00638,0,0,1-1.42254,2.269l-10.27,2.95652-1.01565,26.06826a2,2,0,0,1-1.99848,1.92213H294.77371A2,2,0,0,1,292.799,416.356l-6.99991-43.57441-16.17626,1.454s-84.88,17.26681-71.43-44.89369L234.544,331.1628l4.24284,3.93427A18.82521,18.82521,0,0,0,257.77345,339.07274Z"/><path fill="#4f66d0" d="M250.90565,376.31922c8.68682-4.19727,17.43391-8.2616,26.17808-12.33228l13.1548-6.02124q6.56979-3.02729,13.17751-5.97094l-.06217.03405a3.64319,3.64319,0,0,1,2.95857-.2904,5.12836,5.12836,0,0,1,2.30727,1.70312,14.85727,14.85727,0,0,1,2.36255,4.89527,50.32251,50.32251,0,0,1,1.70206,10.51855,153.83218,153.83218,0,0,1-.16709,21.193c.04114-3.53088.11553-7.0592.029-10.58532-.08412-3.52442-.20185-7.04822-.5435-10.54944a54.5153,54.5153,0,0,0-1.85-10.32153,14.04158,14.04158,0,0,0-2.23312-4.57483,4.229,4.229,0,0,0-1.89292-1.39844,2.743,2.743,0,0,0-2.15807.20227l-.047.027-.01553.0072q-6.57151,3.02362-13.17521,5.97607l-13.19793,5.926C268.6087,368.65137,259.78731,372.55176,250.90565,376.31922Z"/><path fill="#4f66d0" d="M323.10088 378.98987a27.27708 27.27708 0 01-5.00952 2.36377 26.963 26.963 0 01-5.35272 1.42517 26.956 26.956 0 015.00952-2.36377A27.269 27.269 0 01323.10088 378.98987zM291.90339 410.78064a87.09673 87.09673 0 019.903-.49963 86.09607 86.09607 0 019.90305.49963 86.067 86.067 0 01-9.90305.49976A87.12458 87.12458 0 01291.90339 410.78064zM285.79912 372.78162a8.12112 8.12112 0 01-1.74423-2.43921 8.02874 8.02874 0 01-.84579-2.87683 8.02738 8.02738 0 011.74423 2.43909A8.12057 8.12057 0 01285.79912 372.78162z"/><path fill="#f9977a" d="M215.27786,274.08817l-.97123-35.0701,26.18616,1.4366-1.14862,20.93685a8.32149,8.32149,0,0,1-8.76484,7.85317l-.59695-.03275-.1951,5.98647Z"/><polygon fill="#dd765e" points="230.078 269.212 225.891 268.982 229.883 275.198 230.078 269.212"/><path fill="#f73c4f" d="M238.78644,334.75424c-3.06-3.3-2.95785-5.64044-2.98824-9.33307l-1.34156-4.86426c4.62964,10.55347,15.87683,8.39356,15.87683,8.39356,5.6344-.18189,35.30013-17.0557,35.30013-17.0557l-3.20466-9.14211-30.43641,7.3687s-5.3164-9.406-10.63281-19.90234c-5.31628-10.49658-11.57251-15.02051-11.57251-15.02051l-16.22412-2.43506c-29.08106,2.54468-15.37036,56.57862-15.37036,56.57862-13.44995,62.1604,71.43017,44.89355,71.43017,44.89355a35.856,35.856,0,0,0,1.25879-18.21435c-1.14233-5.89014-4.31485-16.81191-6.03763-19.40883-4.62,0-10.35712,5.68284-18.25762,2.2818C241.18884,336.57066,240.50668,336.6094,238.78644,334.75424Z"/><rect width="5" height="68.462" x="220.236" y="372.914" fill="#c38f86"/><path fill="#b02336" d="M251.99254 310.12122a3.09833 3.09833 0 01-.13229 1.6803 3.04692 3.04692 0 01-.9546 1.38879 2.63438 2.63438 0 011.08689-3.06909zM236.72505 324.61634a61.34461 61.34461 0 01-4.486-7.00379 60.61735 60.61735 0 01-3.61356-7.49133 60.62689 60.62689 0 014.486 7.00378A61.33394 61.33394 0 01236.72505 324.61634z"/><path fill="#160b07" d="M244.65786,230.15042s.67432-7.4292-6.66968-2.36572c0,0-4.18017-11.29517-17.26965,3.719,0,0-19.21338.61963-11.97107,16.75976a24.54832,24.54832,0,0,1-4.14917,6.47779c-5.25611,6.07617-8.4596,5.373-12.96008,12.24-3.53321,5.39111-3.89,9.38135-3.96,10.43994a17.9433,17.9433,0,0,0,2.16,10.08008c2.86169,5.05688,8.73755,9.19409,15.12,9,7.32349-.22266,11.02323-6.76853,15.48-10.80005,9.54413-8.6335,9.89209-26.54419,10.93079-29.61475,0,0-4.80985-2.97648-.85335-5.99926a3.76,3.76,0,0,1,3.11046-.72216,1.50668,1.50668,0,0,1,1.36508,1.45384l5.50159-10.36425s4.98547,1.47339,5.04785-4.52271C245.54067,235.93191,250.89248,233.159,244.65786,230.15042Z"/><path fill="#d5efc8" d="M186.28781,361.78536s-6.27057-18.81173-1.36317-57.25309c0,0,1.90844-12.9501,14.72222-13.90432s22.21965,19.81617,26.03653,41.05649,12.26851,40.22574,39.94084,40.75232c0,0,36.56513,6.25189-41.28791,9.79613C224.33632,382.23289,191.0589,382.50552,186.28781,361.78536Z"/><path fill="#f73c4f" d="M231.46175,261.18117c3.86071,0,3.86711-6,0-6-3.86071,0-3.86711,6,0,6Z"/><polygon fill="#c38f86" points="201.136 441.376 244.336 441.376 222.736 420.734 201.136 441.376"/><rect width="69.997" height="1" x="259.545" y="239.772" fill="#748ce2" transform="rotate(-43.377 294.543 240.272)"/><rect width="69.997" height="1" x="261.966" y="263.415" fill="#748ce2" transform="rotate(-43.377 296.965 263.915)"/><path fill="#8b9d36" d="M290.78746,297.33516a26.41088,26.41088,0,0,1,15.93557,1.54417s-1.87659,1.52491-2.23659,5.30491c0,0-1.53163-2.15175-15.96-2.55A3.08594,3.08594,0,0,1,290.78746,297.33516Z"/><path fill="#5e7c24" d="M290.60013,298.1017s8.13077-1.38653,14.16546.91559a4.81546,4.81546,0,0,0-1.59407,3.34955s-3.71106-1.60014-13.89508-1.89834C289.27644,300.4685,288.04262,298.71079,290.60013,298.1017Z"/><path fill="#f9977a" d="M282.42894,302.75266s6.118-8.21167,7.85621-7.64208-.71034,5.69191-.71034,5.69191l3.65013,1.19613s1.3615,8.26062-7.59134,9.89615Z"/></svg>