<svg xmlns="http://www.w3.org/2000/svg" viewBox="0 0 100 100"><path d="M86.3 40.3c1.9-1.8 3.2-4.4 3.2-7.3 0-5.5-4.5-10-10-10s-10 4.5-10 10c0 2.4.8 4.6 2.3 6.3-3.1.7-5.7 2.6-7.4 5.4L61.7 49H55c-2 0-3.7.8-5 2.1-1.3-1.3-3-2.1-5-2.1h-6.7l-2.7-4.3c-1.7-2.7-4.3-4.6-7.4-5.4 1.4-1.7 2.3-3.9 2.3-6.3 0-5.5-4.5-10-10-10s-10 4.5-10 10c0 2.9 1.2 5.5 3.2 7.3-4 1.9-6.7 6-6.7 10.7v20c0 3.3 2.7 6 6 6h14c3.3 0 6-2.7 6-6v-8h12c2 0 3.7-.8 5-2.1 1.3 1.3 3 2.1 5 2.1h12v8c0 3.3 2.7 6 6 6h14c3.3 0 6-2.7 6-6V51c0-4.7-2.7-8.8-6.7-10.7zM20.5 27c3.3 0 6 2.7 6 6s-2.7 6-6 6-6-2.7-6-6 2.7-6 6-6zM45 59H32.1l-5.6-9c-.6-.9-1.8-1.2-2.8-.7s-1.2 1.8-.6 2.8l5.9 9.6V71c0 1.1-.9 2-2 2H13c-1.1 0-2-.9-2-2V51c0-4.4 3.6-8 8-8h6.4c2.8 0 5.3 1.4 6.8 3.8l3.2 5.2c.4.6 1 1 1.7 1H45c1.7 0 3 1.3 3 3 0 1.6-1.3 3-3 3zm34.5-32c3.3 0 6 2.7 6 6s-2.7 6-6 6-6-2.7-6-6 2.7-6 6-6zM89 71c0 1.1-.9 2-2 2H73c-1.1 0-2-.9-2-2v-9.4l5.9-9.6c.6-.9.3-2.2-.6-2.8s-2.2-.2-2.8.8l-5.6 9H55c-1.7 0-3-1.4-3-3 0-1.7 1.3-3 3-3h7.8c.7 0 1.3-.4 1.7-1l3.2-5.2c1.5-2.4 4-3.8 6.8-3.8H81c4.4 0 8 3.6 8 8v20z"/></svg>