<svg xmlns="http://www.w3.org/2000/svg" viewBox="0 0 64 64"><g data-name="colour icon"><path fill="#37474f" d="M5,34.92h6.68a0,0,0,0,1,0,0v20a0,0,0,0,1,0,0H2a0,0,0,0,1,0,0v-17A3,3,0,0,1,5,34.92Z"/><path fill="#ffcba1" d="M61.44,38.45a2.19,2.19,0,0,0-2.87-.35l-3.13,2.11c-7.6,5.41-17.08,5.15-24.73,3.64a1.69,1.69,0,0,1-1.37-1.66h0A1.69,1.69,0,0,1,31,40.5h10a3,3,0,0,0,0-5.92h-14c-12.55-.61-12.86,4.9-12.86,4.9H11.68V52.33h3.89L32.08,55.2a2.85,2.85,0,0,0,1.05,0l12.36-2.38a2.27,2.27,0,0,0,.71-.27l8.52-5.17a2.67,2.67,0,0,0,.43-.32l6.12-5.49A2.21,2.21,0,0,0,61.44,38.45Z"/><circle cx="8.29" cy="39.56" r="1.39" fill="#e6e6e5"/><circle cx="36.84" cy="19.12" r="10.36" fill="#ffc107"/><path fill="#ffd939" d="M36.84,27.31A8.19,8.19,0,1,1,45,19.12,8.19,8.19,0,0,1,36.84,27.31Z"/><path fill="#37474f" d="M37.34,18.65V15.5c1.19.15,2.13.8,2.13,1.55a.5.5,0,0,0,.5.5.51.51,0,0,0,.5-.5c0-1.33-1.34-2.37-3.13-2.54v-.85a.5.5,0,1,0-1,0v.85c-1.79.17-3.13,1.21-3.13,2.54s1.34,2.37,3.13,2.53v3.16c-1.2-.15-2.13-.8-2.13-1.55a.5.5,0,0,0-.5-.5.51.51,0,0,0-.5.5c0,1.32,1.34,2.37,3.13,2.54v.85a.5.5,0,0,0,1,0v-.85c1.79-.17,3.13-1.22,3.13-2.54S39.13,18.82,37.34,18.65Zm-3.13-1.6c0-.75.93-1.4,2.13-1.55v3.09C35.14,18.44,34.21,17.8,34.21,17.05Zm3.13,5.69V19.65c1.19.15,2.13.79,2.13,1.54S38.53,22.59,37.34,22.74Z"/></g></svg>