<svg xmlns="http://www.w3.org/2000/svg" width="512" height="512"><defs><clipPath id="a"><path fill="#356ba0" d="M-982.02-155.142a185.545 185.545 0 1 1-.01 1.896" transform="matrix(1.27847 0 0 1.2713 1274.08 3.516)"/></clipPath></defs><g clip-path="url(#a)" transform="matrix(1.01174 0 0 1.01745 -2.8 450.644)"><path fill="#27ae60" d="M48.57-431.844c-17.51 0-31.594 14.116-31.594 31.625V16.56a31.517 31.517 0 0 0 31.593 31.595h416.782c17.509 0 31.625-14.085 31.625-31.594V-400.22c0-17.51-14.116-31.625-31.625-31.625H48.569z"/><path fill="#e74c3c" d="M48.423-431.695c-17.514 0-31.602 14.838-31.602 33.243v131.195h480.125v-131.195c0-18.405-14.12-33.243-31.633-33.243H48.423z"/><path fill="#2980b9" d="M466.359 49.446c17.509 0 31.594-15.56 31.594-34.86V-122.99h-480V14.587c0 19.3 14.115 34.86 31.625 34.86h416.78z"/><path fill="#fff" d="M55.2-267.2H497v17.8H55.2zM54.7-137.6h442.6v15.2H54.7z"/><path fill="#fff" d="M78.363 49.32c-16.987 0-30.652-14.152-30.652-31.705V-400.22c0-17.553 13.665-31.673 30.652-31.673h14.493l46.72 48.372 181.185 187.534L139.152-9.798 81.456 49.32h-3.093z"/><path fill="#27ae60" d="M45.017 49.492c-17.199 0-31.034-14.151-31.034-31.704v-417.834c0-17.553 13.835-31.673 31.034-31.673h14.672l47.302 48.371 183.436 187.535L106.56-9.625 48.148 49.492h-3.131z"/><path fill="#f3b412" d="m13.64-378.51 84.824 91.642 84.823 91.643-84.618 92.311L14.05-10.602l-.206-183.954z"/><path fill="#222" d="m13.656-331.424 63.27 68.357 63.272 68.357-63.118 68.855-63.118 68.856-.153-137.213z"/><path fill="#27ae60" d="M221.749-249.355h102.389v111.806H221.749z"/><path fill="#fff" d="m48.225 49.292 33.517-.141L62.6 34.867zM92.985-432.106l-33.517.193 19.141 19.464z"/></g></svg>