<svg xmlns="http://www.w3.org/2000/svg" xmlns:xlink="http://www.w3.org/1999/xlink" width="512" height="512"><defs><clipPath id="a"><path fill="#fcd116" d="M-816.203 140.264a440.426 440.426 0 1 1-880.853 0 440.426 440.426 0 1 1 880.853 0z" transform="translate(126.307 720.276) scale(.54833)"/></clipPath></defs><g clip-path="url(#a)" transform="translate(815.249 -536.236) scale(.99379)"><path fill="#2ecc71" d="M-894.995 567.179h483v69h-483z" transform="translate(90.751 -11.492)"/><path fill="#f1c40f" d="M-894.995 636.179h483v69h-483z" transform="translate(90.751 -11.492)"/><path fill="#e74c3c" d="M-894.995 705.179h483v69h-483z" transform="translate(90.751 -11.492)"/><path fill="#2ecc71" d="M-894.995-1050.179h483v69h-483z" transform="matrix(1 0 0 -1 90.751 -11.492)"/><path fill="#f1c40f" d="M-894.995-981.179h483v69h-483z" transform="matrix(1 0 0 -1 90.751 -11.492)"/><path fill="#e74c3c" d="M-894.995-912.179h483v69h-483z" transform="matrix(1 0 0 -1 90.751 -11.492)"/><path fill="#222" d="M-894.995 774.179h483v69h-483z" transform="translate(90.751 -11.492)"/><path fill="#222" d="M-1070.924 1004.342h2.492l62.448-68.78 155.06-170.78v-1.136l-220-242.304v483z" transform="translate(266.68 34.345)"/><path fill="#fff" d="M-1070.924 982.842h2.27l56.889-62.656L-870.51 764.61v-1.035l-200.414-220.733v440z" transform="translate(266.68 34.345)"/><g fill="#e74c3c"><g transform="translate(-727.31 806.208) scale(68.41273)"><path id="b" fill="#e74c3c" d="M0 0v1h.75z" transform="rotate(26.268 2.143 -.5)"/><use id="d" width="744.094" height="1052.362" x="0" y="0" fill="#e74c3c" transform="scale(-1 1)" xlink:href="#b"/><path id="c" fill="#e74c3c" d="M0 0v1h.75z" transform="rotate(19.58 2.898 -.5)"/><use id="e" width="744.094" height="1052.362" x="0" y="0" fill="#e74c3c" transform="scale(-1 1)" xlink:href="#c"/><use width="744.094" height="1052.362" transform="rotate(72)" xlink:href="#b"/><use width="744.094" height="1052.362" transform="rotate(-72)" xlink:href="#d"/><use width="744.094" height="1052.362" transform="rotate(72)" xlink:href="#c"/><use width="744.094" height="1052.362" transform="rotate(-72)" xlink:href="#e"/></g><g transform="translate(-727.31 806.208) scale(58.79219)"><g id="g" fill="#e74c3c"><path id="f" fill="#e74c3c" d="M0 0v1h.5z" transform="rotate(24.225 2.33 -.5)"/><use width="744.094" height="1052.362" transform="scale(-1 1)" xlink:href="#f"/></g><use width="744.094" height="1052.362" transform="rotate(144)" xlink:href="#g"/><use width="744.094" height="1052.362" transform="rotate(-144)" xlink:href="#g"/></g></g><path fill="#f1c40f" d="M28.635 55.11c1.977 4.305 2.47 4.587 7.411 6.28 4.94 1.695 18.898 3.3 20.274 3.46-.9-.9-16.621-12.546-19.85-14.875-3.23-2.33-4.13-3.388-4.13-3.388s-2.91-5.24-3.916-6.776c-1.006-1.535-2.859-3.705-5.294-3.705-2.435 0-3.917 1.43-4.623 3.97-.388.106-2.47 1.376-2.4 2.682.6-.07 4.377-1.13 5.682 3.14 1.306 4.27 1.377 11.258.036 14.717-1.342 3.458-3.424 6.07-3.424 9.104 0 .424.283 1.27.989 1.27.247 1.342 2.223 10.905 2.223 10.905h28.161l4.473-17.292" overflow="visible" transform="translate(-799.998 671.52) scale(2.1379)"/><g fill="none" stroke="#000" stroke-width=".399"><path d="M28.635 55.11c1.977 4.305 2.47 4.587 7.411 6.28 4.94 1.695 18.898 3.3 20.274 3.46-.9-.9-16.621-12.546-19.85-14.875-3.23-2.33-4.13-3.388-4.13-3.388s-2.91-5.24-3.916-6.776c-1.006-1.535-2.859-3.705-5.294-3.705-2.435 0-3.917 1.43-4.623 3.97-.388.106-2.47 1.376-2.4 2.682.6-.07 4.377-1.13 5.682 3.14 1.306 4.27 1.377 11.258.036 14.717-1.342 3.458-3.424 6.07-3.424 9.104 0 .424.283 1.27.989 1.27.247 1.342 2.223 10.905 2.223 10.905h28.161l4.473-17.292" transform="translate(-799.998 671.52) scale(2.1379)"/><path d="M19.39 70.99s5.999-.353 7.622-.353c1.623 0 16.734.019 25.165 1.968" transform="translate(-799.998 671.52) scale(2.1379)"/><path d="M21.508 70.87s-.6-.727-.213-2.174c.388-1.447 4.623-5.188 4.623-10.481M25.142 70.637s-.494-2.365 4.905-4.376c1.518-.459 5.858-2.894 6-4.87" transform="translate(-799.998 671.52) scale(2.1379)"/><path d="M29.473 66.485s13.243.058 23.724 2.176M32.793 64.905s4.55.156 5.291-.056c.741-.211 2.053-.762 2.575-2.313" transform="translate(-799.998 671.52) scale(2.1379)"/><path d="M35.49 64.96s2.435-1.266 2.911-2.912M28.141 81.894s-1.04-7.216-1.252-11.257l2.717 2.594 2.875-2.515 2.471 2.638 2.858-2.425 2.471 2.778 2.83-2.407 2.252 2.619 2.822-2.041 3.355 3.189" transform="translate(-799.998 671.52) scale(2.1379)"/><path d="M50.95 77.345c-10.08-1.444-23.57-1.35-23.57-1.35M22.694 51.052s8.2-3.918 9.647-4.465" transform="translate(-799.998 671.52) scale(2.1379)"/></g><g fill="none" stroke="#000" stroke-width="1.883" transform="translate(-765.792 748.485) scale(.45267)"><path d="m52.487 177.086 13.018 11.851 11.762-11.761 11.896 12.266 12.846-11.358 11.827 12.43 13.339-11.013 10.897 12.728 13.27-10.145 13.947 12.32"/><circle cx="89.425" cy="154.584" r="5.167"/><circle cx="111.237" cy="156.047" r="5.167"/><circle cx="30.05" cy="16.5" r="4"/></g></g></svg>